HIERARCHY
ROOT joint_Root
{
	OFFSET 0.0 0.0 0.0
	CHANNELS 6 Xposition Yposition Zposition Zrotation Xrotation Yrotation 
	JOINT Hips
	{
		OFFSET -0.726466 93.3139 -2.00062
		CHANNELS 6 Xposition Yposition Zposition Zrotation Xrotation Yrotation 
		JOINT Spine
		{
			OFFSET 15.7357 0.0 0.0
			CHANNELS 6 Xposition Yposition Zposition Zrotation Xrotation Yrotation 
			JOINT Chest
			{
				OFFSET 8.98455 -0.406207 0.0
				CHANNELS 6 Xposition Yposition Zposition Zrotation Xrotation Yrotation 
				JOINT Neck
				{
					OFFSET 16.3773 0.0 0.0
					CHANNELS 6 Xposition Yposition Zposition Zrotation Xrotation Yrotation 
					JOINT Head
					{
						OFFSET 6.45672 0.0 0.0
						CHANNELS 6 Xposition Yposition Zposition Zrotation Xrotation Yrotation 
						End Site
						{
							OFFSET 0.0 0.0 0.0
						}
					}
				}
				JOINT Shoulder_L
				{
					OFFSET 12.9942 -0.242716 4.98039
					CHANNELS 6 Xposition Yposition Zposition Zrotation Xrotation Yrotation 
					JOINT UpperArm_L
					{
						OFFSET 5.34809 0.0 0.0
						CHANNELS 6 Xposition Yposition Zposition Zrotation Xrotation Yrotation 
						JOINT LowerArm_L
						{
							OFFSET 24.3286 1.87007e-05 0.0
							CHANNELS 6 Xposition Yposition Zposition Zrotation Xrotation Yrotation 
							JOINT Hand_L
							{
								OFFSET 22.2916 0.0 0.0
								CHANNELS 6 Xposition Yposition Zposition Zrotation Xrotation Yrotation 
								End Site
								{
									OFFSET 0.0 0.0 0.0
								}
							}
						}
					}
				}
				JOINT Shoulder_R
				{
					OFFSET 12.9945 -0.242716 -4.98039
					CHANNELS 6 Xposition Yposition Zposition Zrotation Xrotation Yrotation 
					JOINT UpperArm_R
					{
						OFFSET -5.34813 0.0 0.0
						CHANNELS 6 Xposition Yposition Zposition Zrotation Xrotation Yrotation 
						JOINT LowerArm_R
						{
							OFFSET -24.3289 0.000322201 0.0
							CHANNELS 6 Xposition Yposition Zposition Zrotation Xrotation Yrotation 
							JOINT Hand_R
							{
								OFFSET -22.2915 -0.000108084 0.0
								CHANNELS 6 Xposition Yposition Zposition Zrotation Xrotation Yrotation 
								End Site
								{
									OFFSET 0.0 0.0 0.0
								}
							}
						}
					}
				}
			}
		}
		JOINT UpperLeg_L
		{
			OFFSET -2.19248 -6.46944 0.0
			CHANNELS 6 Xposition Yposition Zposition Zrotation Xrotation Yrotation 
			JOINT LowerLeg_L
			{
				OFFSET 39.0811 0.0 -1.23785e-05
				CHANNELS 6 Xposition Yposition Zposition Zrotation Xrotation Yrotation 
				JOINT Foot_L
				{
					OFFSET 40.9854 0.0 -1.26872e-05
					CHANNELS 6 Xposition Yposition Zposition Zrotation Xrotation Yrotation 
					JOINT Toes_L
					{
						OFFSET 11.7543 0.0 0.0
						CHANNELS 6 Xposition Yposition Zposition Zrotation Xrotation Yrotation 
						End Site
						{
							OFFSET 0.0 0.0 0.0
						}
					}
				}
			}
		}
		JOINT UpperLeg_R
		{
			OFFSET -2.19251 6.46944 0.0
			CHANNELS 6 Xposition Yposition Zposition Zrotation Xrotation Yrotation 
			JOINT LowerLeg_R
			{
				OFFSET -39.0811 -0.00228153 -0.0401928
				CHANNELS 6 Xposition Yposition Zposition Zrotation Xrotation Yrotation 
				JOINT Foot_R
				{
					OFFSET -40.9854 0.0 0.0
					CHANNELS 6 Xposition Yposition Zposition Zrotation Xrotation Yrotation 
					JOINT Toes_R
					{
						OFFSET -11.7543 0.0 0.0
						CHANNELS 6 Xposition Yposition Zposition Zrotation Xrotation Yrotation 
						End Site
						{
							OFFSET 0.0 0.0 0.0
						}
					}
				}
			}
		}
	}
}
MOTION
Frames:	8
Frame Time:	0.0333333
0.000000 0.000000 0.000000 0.000000 0.000000 -0.000000 -118.135000 90.594600 175.979000 -72.182200 -82.895200 -157.297000 15.735700 0.000005 -0.000001 104.479000 83.206200 -103.443000 8.984550 -0.406207 -0.000000 5.367610 3.367980 1.912380 16.377300 -0.000001 -0.000001 3.726970 -0.642173 0.550478 6.456720 -0.000001 -0.000000 4.203850 -3.078460 -1.859160 12.994200 -0.242716 4.980390 -89.245300 -1.875280 -68.073200 5.348090 -0.000007 -0.000001 -76.547500 21.627800 2.800470 24.328600 0.000019 0.000005 2.099740 8.040370 -14.688700 22.291600 -0.000001 0.000005 5.628350 5.407340 -3.177300 12.994500 -0.242716 -4.980390 88.727800 4.407140 -73.880900 -5.348130 -0.000001 -0.000004 -52.319700 34.271900 -40.330300 -24.328900 0.000322 -0.000009 2.749870 4.592000 -30.972100 -22.291500 -0.000108 -0.000004 11.085500 5.437810 -4.208660 -2.192480 -6.469440 -0.000000 -175.211000 -10.168200 -19.513500 39.081100 -0.000007 -0.000012 -0.009405 0.027208 19.067400 40.985400 -0.000006 -0.000013 -0.572369 -3.517830 -49.016300 11.754300 -0.000000 0.000003 -0.006072 -0.071498 -19.486700 -2.192510 6.469440 -0.000001 179.871000 14.818500 -173.338000 -39.081100 -0.002282 -0.040193 0.043299 -0.095551 22.706300 -40.985400 0.000008 0.000006 8.529910 4.985310 -73.821800 -11.754300 -0.000006 -0.000006 -0.011133 -0.111914 -21.134300
0.000000 0.000000 0.000000 0.000000 0.000000 -0.000000 -121.595000 89.900100 176.230000 -70.302000 -81.895500 -155.993000 15.735700 0.000005 -0.000001 106.819000 83.372300 -105.639000 8.984550 -0.406207 -0.000000 4.892930 3.798410 2.196630 16.377300 -0.000001 -0.000001 3.510170 -0.419630 0.619367 6.456720 -0.000001 -0.000000 4.077700 -2.818940 -2.034670 12.994200 -0.242716 4.980390 -89.170400 -2.063790 -68.094600 5.348090 -0.000007 -0.000001 -77.057900 20.704300 3.182180 24.328600 0.000019 0.000005 2.106260 9.006330 -13.221200 22.291600 -0.000001 0.000005 5.518300 5.387240 -2.527020 12.994500 -0.242716 -4.980390 88.718700 4.510740 -74.124900 -5.348130 -0.000001 -0.000004 -51.360800 32.950100 -41.574000 -24.328900 0.000322 -0.000009 2.803920 4.301240 -33.155900 -22.291500 -0.000108 -0.000004 11.642000 5.441070 -4.322740 -2.192480 -6.469440 -0.000000 -174.662000 -9.996110 -19.578800 39.081100 -0.000007 -0.000012 0.019075 -0.112269 9.643310 40.985400 -0.000006 -0.000013 -0.838549 -1.573030 -49.470000 11.754300 -0.000000 0.000003 -0.006234 -0.072958 -19.546300 -2.192510 6.469440 -0.000001 179.567000 13.862800 -172.549000 -39.081100 -0.002282 -0.040193 0.043177 -0.087504 24.492700 -40.985400 0.000008 0.000006 8.107700 5.067690 -74.708200 -11.754300 -0.000006 -0.000006 -0.013012 -0.124912 -21.666700
0.000000 0.000000 0.000000 0.000000 0.000000 -0.000000 -125.538000 89.137600 176.686000 -68.499400 -80.642300 -154.482000 15.735700 0.000005 -0.000001 108.826000 83.479600 -107.472000 8.984550 -0.406207 -0.000000 4.539010 4.162740 2.540380 16.377300 -0.000001 -0.000001 3.225560 -0.216136 0.693885 6.456720 -0.000001 -0.000000 4.002970 -2.625140 -1.992550 12.994200 -0.242716 4.980390 -89.166600 -2.064830 -68.013300 5.348090 -0.000007 -0.000001 -77.522600 19.994700 3.211730 24.328600 0.000019 0.000005 2.099890 10.090300 -11.820600 22.291600 -0.000001 0.000005 5.278730 5.359430 -1.662360 12.994500 -0.242716 -4.980390 88.710000 4.583490 -74.262200 -5.348130 -0.000001 -0.000004 -51.030200 32.113200 -42.054600 -24.328900 0.000322 -0.000009 2.619610 3.801040 -34.623800 -22.291500 -0.000108 -0.000004 12.437700 5.446890 -4.528310 -2.192480 -6.469440 -0.000000 -175.185000 -12.173500 -22.028500 39.081100 -0.000007 -0.000012 0.013330 -0.072500 10.418800 40.985400 -0.000006 -0.000013 -0.221159 -0.230194 -56.536800 11.754300 -0.000000 0.000003 -0.006429 -0.074697 -19.617200 -2.192510 6.469440 -0.000001 179.272000 12.112300 -171.782000 -39.081100 -0.002282 -0.040193 0.037082 -0.066317 26.988700 -40.985400 0.000008 0.000006 7.592430 4.991920 -74.123400 -11.754300 -0.000006 -0.000006 -1.053380 -1.165650 -24.011400
0.000000 0.000000 0.000000 0.000000 0.000000 -0.000000 -129.781000 88.701600 177.526000 -77.674900 -81.524900 -163.469000 15.735700 0.000005 -0.000001 105.735000 83.534900 -104.987000 8.984550 -0.406207 -0.000000 4.664250 3.479870 1.353000 16.377300 -0.000001 -0.000001 3.047310 -0.332982 0.801816 6.456720 -0.000001 -0.000000 3.699240 -2.546500 -1.739870 12.994200 -0.242716 4.980390 -89.436000 -1.426900 -68.429900 5.348090 -0.000007 -0.000001 -77.456400 19.646000 2.513880 24.328600 0.000019 0.000005 2.080310 11.174900 -10.615500 22.291600 -0.000001 0.000005 5.347740 5.341050 -1.110440 12.994500 -0.242716 -4.980390 88.535200 5.267030 -74.434700 -5.348130 -0.000001 -0.000004 -51.401500 30.959900 -41.316700 -24.328900 0.000322 -0.000009 2.348930 3.342600 -35.140000 -22.291500 -0.000108 -0.000004 13.110500 5.455430 -4.834460 -2.192480 -6.469440 -0.000000 -177.639000 -11.743000 -24.713800 39.081100 -0.000007 -0.000012 0.070106 -0.244480 16.000700 40.985400 -0.000006 -0.000013 1.129420 -0.690683 -50.191900 11.754300 -0.000000 0.000003 -0.007683 -0.085435 -20.055500 -2.192510 6.469440 -0.000001 176.002000 11.760400 -170.582000 -39.081100 -0.002282 -0.040193 0.006373 -0.005406 29.594500 -40.985400 0.000008 0.000006 7.033970 5.625040 -72.029200 -11.754300 -0.000006 -0.000006 -2.153880 -2.073680 -27.819400
0.000000 0.000000 0.000000 0.000000 0.000000 -0.000000 -134.579000 88.383700 178.440000 -89.472500 -81.874300 -174.726000 15.735700 0.000005 -0.000001 104.007000 83.549800 -103.918000 8.984550 -0.406207 -0.000000 4.754060 3.114160 0.046718 16.377300 -0.000001 -0.000001 3.058030 -0.639074 1.030100 6.456720 -0.000001 -0.000000 3.584960 -2.727440 -1.587940 12.994200 -0.242716 4.980390 -89.635100 -0.936855 -68.715200 5.348090 -0.000007 -0.000001 -77.442000 20.785300 1.450720 24.328600 0.000019 0.000005 2.044620 11.558600 -10.102400 22.291600 -0.000001 0.000005 5.143160 5.329740 -0.777794 12.994500 -0.242716 -4.980390 88.406400 5.688180 -74.321200 -5.348130 -0.000001 -0.000004 -53.448900 29.986900 -38.573200 -24.328900 0.000322 -0.000009 2.295850 3.246840 -35.306200 -22.291500 -0.000108 -0.000004 13.682400 5.459210 -4.972010 -2.192480 -6.469440 -0.000000 -179.434000 -10.156600 -25.252600 39.081100 -0.000007 -0.000012 0.050272 -0.129069 21.280800 40.985400 -0.000006 -0.000013 1.365290 -1.145880 -43.404700 11.754300 -0.000000 0.000003 -0.007125 -0.080741 -19.863800 -2.192510 6.469440 -0.000001 172.849000 10.328200 -169.452000 -39.081100 -0.002282 -0.040193 0.027531 -0.036867 33.320700 -40.985400 0.000008 0.000006 6.360120 5.260830 -69.571700 -11.754300 -0.000006 -0.000006 -0.075057 -0.377884 -32.241100
0.000000 0.000000 0.000000 0.000000 0.000000 -0.000000 -139.650000 88.322800 179.293000 -96.494000 -81.431200 179.415000 15.735700 0.000005 -0.000001 103.591000 83.391600 -103.971000 8.984550 -0.406207 -0.000000 5.097020 3.108170 -0.898123 16.377300 -0.000001 -0.000001 3.156580 -0.686430 1.094800 6.456720 -0.000001 -0.000000 3.725800 -3.062060 -1.180350 12.994200 -0.242716 4.980390 -89.725700 -0.702033 -68.656300 5.348090 -0.000007 -0.000001 -77.339300 22.693500 -0.036018 24.328600 0.000019 0.000005 2.141900 11.516300 -10.610200 22.291600 -0.000001 0.000005 4.223360 5.335350 -0.942714 12.994500 -0.242716 -4.980390 88.313100 6.089550 -74.484000 -5.348130 -0.000001 -0.000004 -56.441400 29.178400 -34.120700 -24.328900 0.000322 -0.000009 2.039810 2.926320 -34.915700 -22.291500 -0.000108 -0.000004 14.412900 5.458430 -4.943200 -2.192480 -6.469440 -0.000000 179.580000 -9.431990 -25.033000 39.081100 -0.000007 -0.000012 0.024129 -0.042742 29.445600 40.985400 -0.000006 -0.000013 1.321470 -2.801420 -48.928300 11.754300 -0.000000 0.000003 -0.001410 -0.021080 -17.433900 -2.192510 6.469440 -0.000001 171.325000 7.872350 -169.562000 -39.081100 -0.002282 -0.040193 0.085021 -0.100509 39.120200 -40.985400 0.000008 0.000006 7.701130 3.372140 -63.084600 -11.754300 -0.000006 -0.000006 -0.166491 -0.586305 -41.478200
0.000000 0.000000 0.000000 0.000000 0.000000 -0.000000 -144.598000 88.438900 180.132000 -97.772800 -81.092500 179.662000 15.735700 0.000005 -0.000001 103.126000 83.065100 -103.625000 8.984550 -0.406207 -0.000000 5.762050 3.150570 -1.155030 16.377300 -0.000001 -0.000001 3.210760 -0.697580 0.801131 6.456720 -0.000001 -0.000000 3.908280 -3.187790 -1.177290 12.994200 -0.242716 4.980390 -89.744500 -0.655656 -68.708900 5.348090 -0.000007 -0.000001 -77.195300 24.981500 -1.964830 24.328600 0.000019 0.000005 2.239690 10.289700 -12.350800 22.291600 -0.000001 0.000005 3.135950 5.354970 -1.527200 12.994500 -0.242716 -4.980390 88.399100 5.791740 -74.519500 -5.348130 -0.000001 -0.000004 -60.619500 28.101900 -29.426900 -24.328900 0.000322 -0.000009 1.793620 2.819290 -32.496800 -22.291500 -0.000108 -0.000004 14.680500 5.463720 -5.137400 -2.192480 -6.469440 -0.000000 179.300000 -8.270460 -22.710900 39.081100 -0.000007 -0.000012 -0.029437 0.042130 34.943300 40.985400 -0.000006 -0.000013 1.034620 -4.249300 -55.250900 11.754300 -0.000000 0.000003 -0.000002 -0.000024 -16.578400 -2.192510 6.469440 -0.000001 170.495000 6.720880 -171.941000 -39.081100 -0.002282 -0.040193 0.144090 -0.128857 47.543000 -40.985400 0.000008 0.000006 9.424710 2.299190 -52.167300 -11.754300 -0.000006 -0.000006 -0.219617 -0.676736 -45.731400
0.000000 0.000000 0.000000 0.000000 0.000000 -0.000000 -148.922000 88.610000 181.010000 -99.048900 -80.188800 179.300000 15.735700 0.000005 -0.000001 102.731000 82.868300 -103.289000 8.984550 -0.406207 -0.000000 6.169560 3.142200 -1.285410 16.377300 -0.000001 -0.000001 3.402970 -0.267654 0.187695 6.456720 -0.000001 -0.000000 3.921740 -2.744830 -1.814330 12.994200 -0.242716 4.980390 -89.810400 -0.483762 -68.595200 5.348090 -0.000007 -0.000001 -76.541300 27.614000 -4.415950 24.328600 0.000019 0.000005 2.195930 8.210880 -15.029800 22.291600 -0.000001 0.000005 2.940190 5.376180 -2.178380 12.994500 -0.242716 -4.980390 88.553800 5.300050 -74.713600 -5.348130 -0.000001 -0.000004 -63.740900 28.016300 -26.236300 -24.328900 0.000322 -0.000009 1.174830 2.238620 -27.715400 -22.291500 -0.000108 -0.000004 14.645200 5.461820 -5.067360 -2.192480 -6.469440 -0.000000 178.558000 -8.357350 -19.976600 39.081100 -0.000007 -0.000012 -0.074644 0.096777 37.643700 40.985400 -0.000006 -0.000013 1.089950 -5.222940 -59.886600 11.754300 -0.000000 0.000003 -0.000009 -0.000122 -16.582300 -2.192510 6.469440 -0.000001 170.216000 4.379470 -177.681000 -39.081100 -0.002282 -0.040193 0.174440 -0.108776 57.573300 -40.985400 0.000008 0.000006 7.862520 -0.162887 -40.181700 -11.754300 -0.000006 -0.000006 -0.079180 -0.389643 -32.746200
